# xmcd
#
# Track frame offsets:
#	150
#	14215
#	27769
#	44232
#	56337
#	78350
#	101544
#	122812
#	138300
#	151461
#	167755
#	181313
#	196166
#	212381
#	227900
#	243650
#
# Disc length: 3444 seconds
#
# Revision: 0
# Processed by: cddbd v1.5.2PL0 Copyright (c) Steve Scherf et al.
# Submitted via: dBpowerAMP V4.0
#
DISCID=da0d7210
DTITLE=Renaud Patigny and his Blue Devils - Still Boogyin'
DYEAR=2006
DGENRE=Blues
TTITLE0=The beast
TTITLE1=Barrelhousin' once more
TTITLE2=Danke Schön Amadeus
TTITLE3=Rockin slowly à la Pete
TTITLE4=Strong women
TTITLE5=Life is priceless
TTITLE6=PJ from KC Congo
TTITLE7=Market place
TTITLE8=Chicken strut
TTITLE9=Benin city Queen's eyes
TTITLE10=Trottant à Chicago
TTITLE11=Walkin' in Brussels
TTITLE12=At club Joe's
TTITLE13=Blues for Claude
TTITLE14=On my way to L.A.
TTITLE15=Boogie soldier
EXTD=
EXTT0=
EXTT1=
EXTT2=
EXTT3=
EXTT4=
EXTT5=
EXTT6=
EXTT7=
EXTT8=
EXTT9=
EXTT10=
EXTT11=
EXTT12=
EXTT13=
EXTT14=
EXTT15=
PLAYORDER=
